<?xml version="1.0" encoding="utf-8"?>
<svg version="1.1" id="Layer_1"
xmlns="http://www.w3.org/2000/svg"
xmlns:xlink="http://www.w3.org/1999/xlink"
width="220px" height="90px"
xml:space="preserve">
<g id="PathID_1" transform="matrix(1.44511, 0, 0, 1.44511, 47.1, 81.5)" opacity="1">
<path style="fill:#000000;fill-opacity:1" d="M7.15 -42.2L12.45 -42.2Q22.65 -42.2 26.35 -35.8Q29.65 -30.95 29.65 -22.55L29.65 -21.1Q29.65 -13.1 23.7 -8.3Q20.3 -5.7 12.35 -5.7Q3.6 -5.7 3.6 -6.55L3.6 -41.45L3.95 -42.05L7.15 -42.2M6.45 -40.6L6.45 -7.5L12.4 -7.4Q19.45 -7.4 23.05 -10.95Q26.75 -14.9 26.75 -21.25Q26.75 -35.55 19.25 -39.2Q15.5 -40.9 6.45 -40.6" />
</g>
<g id="PathID_2" transform="matrix(1.44511, 0, 0, 1.44511, 47.1, 81.5)" opacity="1">
</g>
<g id="PathID_3" transform="matrix(1.44511, 0, 0, 1.44511, 92.25, 81.5)" opacity="1">
<path style="fill:#000000;fill-opacity:1" d="M25.9 -9.3L26.6 -9.3L25.9 -10.35L25.9 -41.95Q25.95 -42.95 26.65 -42.95L27.2 -42.95Q28.75 -42.7 28.75 -42L28.75 -5.4L28.2 -5L27.9 -5Q26.05 -5 25.25 -6.85L5.05 -38.8L5.05 -5.4L4.5 -5Q2.3 -5.05 2.3 -5.95L2.3 -42.4L2.7 -42.95L3.5 -42.95Q4.85 -42.95 6.3 -40.15L25.9 -10.35L25.9 -9.3" />
</g>
<g id="PathID_4" transform="matrix(1.44511, 0, 0, 1.44511, 92.25, 81.5)" opacity="1">
</g>
<g id="PathID_5" transform="matrix(1.44511, 0, 0, 1.44511, 134.1, 81.5)" opacity="1">
<path style="fill:#000000;fill-opacity:1" d="M17.3 -42.9L18 -42.9Q19.2 -42.9 19.8 -40.35Q27.9 -19.4 32.75 -5.85L32.75 -5.45L32.2 -5.05L31 -5.05Q29.9 -5.05 29.25 -7.7L25.35 -18.05L10 -18.05L4.95 -5.15L4.15 -5.05L2.75 -5.05L2.35 -5.55L7.55 -19.75L16.45 -42.6L17.3 -42.9M24.7 -19.5L24.7 -20.05L24.5 -20.05L17.65 -38.25L17.95 -38.95L17.4 -38.95L17.65 -38.25L10.6 -20.05L24.5 -20.05L24.7 -19.5" />
</g>
<g id="PathID_6" transform="matrix(1.44511, 0, 0, 1.44511, 134.1, 81.5)" opacity="1">
</g>
</svg>
